<?xml version="1.0"?>
<svg xmlns="http://www.w3.org/2000/svg" viewBox="0 0 64 64" width="512" height="512"><g id="outline"><circle cx="40" cy="24" r="2"/><circle cx="24" cy="24" r="2"/><path d="M34.445,22.721l1.11-1.664a6.61,6.61,0,0,0-7.11,0l1.11,1.664A4.628,4.628,0,0,1,34.445,22.721Z"/><rect x="26" y="32" width="2" height="2"/><rect x="36" y="32" width="2" height="2"/><path d="M5,42H6.142L8.008,54.124A4.384,4.384,0,0,0,12,57.927V61a1,1,0,0,0,1,1h8a1,1,0,0,0,1-1V58H42v3a1,1,0,0,0,1,1h8a1,1,0,0,0,1-1V57.927a4.373,4.373,0,0,0,3.988-3.775L57.858,42H59a3.017,3.017,0,0,0,3-3,3,3,0,0,0-3-3H44.236l.167-.083a3.857,3.857,0,0,0,2.583-4.082L46,25.917V22.384A8.593,8.593,0,0,0,48,17V11a5.006,5.006,0,0,0-8.564-3.516A4.907,4.907,0,0,0,38,11l0,1H26v-.991a4.923,4.923,0,0,0-1.443-3.532A5,5,0,0,0,16,11v6a8.577,8.577,0,0,0,2,5.375v3.542l-.992,5.959A3.849,3.849,0,0,0,19.6,35.917l.167.083H5a3.017,3.017,0,0,0-3,3A3,3,0,0,0,5,42ZM20,60H14V58h6Zm30,0H44V58h6ZM48,38H59a1,1,0,0,1,1,1,.978.978,0,0,1-.306.712A.957.957,0,0,1,59,40H48Zm-2,0v3a3,3,0,0,1-6,0V38Zm-8,0v7a1,1,0,0,1-2,0,3,3,0,0,0-6,0v4a1,1,0,0,1-2,0V38Zm-7-2,1-1.333L33,36Zm4.5,0-2.7-3.6a1.036,1.036,0,0,0-1.6,0L28.5,36H26a2.844,2.844,0,0,1-2.93-2.1c-.229-1.19.631-2.3,2.3-2.967a11.1,11.1,0,0,0,3.974-2.561,2.976,2.976,0,0,0,5.31,0,11.1,11.1,0,0,0,3.974,2.561c1.67.668,2.53,1.777,2.3,2.967A2.844,2.844,0,0,1,38,36ZM26,38v2H24V38Zm5-11a1,1,0,1,1,1,1A1,1,0,0,1,31,27ZM40.856,8.892A3.007,3.007,0,0,1,46,11v6a6.417,6.417,0,0,1-.946,3.265L44,18.684V11a1,1,0,0,0-2,0v4.684L40.008,12.7,40,10.991A2.926,2.926,0,0,1,40.856,8.892ZM18,17V11a3,3,0,0,1,5.137-2.115A2.947,2.947,0,0,1,24,11v1.634l-2,3.022V11a1,1,0,0,0-2,0v7.677l-1.053,1.592A6.371,6.371,0,0,1,18,17Zm.986,15.165,1-6A1.021,1.021,0,0,0,20,26V22.3L25.535,14h12.93L44,22.3V26a1.021,1.021,0,0,0,.014.165l.994,5.959a1.866,1.866,0,0,1-1.359,1.939c-.033.013-.811.4-.811.4.015-.064.043-.124.056-.189.328-1.7-.425-3.963-3.523-5.2a9.2,9.2,0,0,1-4.225-3.179A3.836,3.836,0,0,0,32,24a3.836,3.836,0,0,0-3.146,1.892,9.2,9.2,0,0,1-4.225,3.179c-3.1,1.24-3.851,3.5-3.523,5.2.013.065.041.125.056.189,0,0-.778-.387-.811-.4A1.861,1.861,0,0,1,18.986,32.165ZM16,38h6v3a3,3,0,0,1-6,0Zm3,8a5.009,5.009,0,0,0,4.9-4H26v7a3,3,0,0,0,6,0V45a1,1,0,0,1,2,0,3,3,0,0,0,6,0v-.026A4.948,4.948,0,0,0,43,46a5.009,5.009,0,0,0,4.9-4h7.935L54.008,53.876C53.762,55.847,51.644,56,51,56H13c-.644,0-2.762-.153-3.012-2.152L8.166,42H14.1A5.009,5.009,0,0,0,19,46ZM4.306,38.288A.957.957,0,0,1,5,38h9v2H5a1,1,0,0,1-1-1A.978.978,0,0,1,4.306,38.288Z"/><path d="M30.126,5A3,3,0,1,0,30,11a2.98,2.98,0,0,0,2.472-1.309A3.928,3.928,0,0,0,34,10a4,4,0,1,0-3.874-5ZM36,6a1.99,1.99,0,0,1-3.345,1.467,1,1,0,0,0-1.671.636A.991.991,0,0,1,30,9a1,1,0,0,1,0-2,.978.978,0,0,1,.512.149,1,1,0,0,0,1.512-.955C32.023,6.183,32,6.011,32,6a2,2,0,0,1,4,0Z"/><path d="M6,31a3,3,0,1,0,3-3A3,3,0,0,0,6,31Zm4,0a1,1,0,1,1-1-1A1,1,0,0,1,10,31Z"/><path d="M49,29a4,4,0,1,0,4-4A4,4,0,0,0,49,29Zm6,0a2,2,0,1,1-2-2A2,2,0,0,1,55,29Z"/><path d="M60,21a3,3,0,1,0-3,3A3,3,0,0,0,60,21Zm-4,0a1,1,0,1,1,1,1A1,1,0,0,1,56,21Z"/><rect x="12" y="52" width="2" height="2"/><rect x="16" y="52" width="2" height="2"/><path d="M15,23a2.978,2.978,0,0,0-1.309-2.471A3.933,3.933,0,0,0,14,19a4,4,0,1,0-5,3.874Q9,22.937,9,23a3,3,0,0,0,6,0Zm-4,0a1,1,0,0,1,.149-.514,1,1,0,0,0-.856-1.516c-.033,0-.066,0-.1.005L10,21a2.024,2.024,0,1,1,1.468-.656,1,1,0,0,0,.634,1.671A1,1,0,1,1,11,23Z"/></g></svg>
