<svg xmlns="http://www.w3.org/2000/svg" style="display: none;"><symbol id="dog" viewBox="0 0 512 512"><title>dog</title><path d="m179.557 157.956c6.67 0 12.097-8.708 12.097-19.412s-5.427-19.412-12.097-19.412-12.096 8.708-12.096 19.412 5.426 19.412 12.096 19.412z"/><path d="m300.601 157.956c6.67 0 12.096-8.708 12.096-19.412s-5.426-19.412-12.096-19.412-12.097 8.708-12.097 19.412 5.427 19.412 12.097 19.412z"/><path d="m451.449 324.922c2.905-5.874 4.461-12.38 4.461-19.012 0-15.223-8.247-29.305-21.1-36.946.426-2.088.64-4.227.64-6.404 0-16.749-12.979-30.524-29.408-31.794-3.938-15.366-16.008-27.246-31.429-30.934v-51.483c6.113-1.721 11.787-4.988 16.46-9.661l23.906-23.905c14.721-14.722 14.721-38.675 0-53.396l-50.326-50.325c-7.131-7.131-16.613-11.059-26.698-11.059s-19.567 3.927-26.698 11.059c-5.25 5.25-8.711 11.867-10.199 18.906-3.602-.464-7.237-.707-10.874-.707h-100.209c-3.637 0-7.272.242-10.874.707-1.487-7.042-4.949-13.662-10.201-18.914-7.14-7.129-16.622-11.054-26.7-11.054-10.071 0-19.55 3.925-26.693 11.057l-50.333 50.332c-14.708 14.72-14.708 38.672.003 53.396l23.909 23.899c4.724 4.725 10.417 7.935 16.458 9.631v51.515c-15.428 3.686-27.498 15.567-31.43 30.936-16.43 1.266-29.414 15.043-29.414 31.794 0 2.173.215 4.311.643 6.403-12.848 7.639-21.093 21.722-21.093 36.947 0 6.645 1.555 13.158 4.46 19.035-9.316 5.339-15.61 15.373-15.61 26.855 0 8.279 3.222 16.052 9.066 21.883 4.511 4.512 10.178 7.45 16.336 8.557l25.019 73.715c11.378 33.522 42.809 56.045 78.209 56.045h196.696c35.4 0 66.83-22.523 78.209-56.046l25.021-73.722c14.421-2.622 25.393-15.266 25.393-30.432 0-8.271-3.216-16.042-9.062-21.89-1.977-1.972-4.177-3.637-6.538-4.988zm-129.585-303.255c4.298-4.298 10.013-6.665 16.091-6.665s11.793 2.367 16.091 6.665l50.326 50.325c8.873 8.873 8.873 23.31.001 32.183l-23.906 23.905c-5.551 5.551-13.439 7.834-21.095 6.108-7.658-1.727-13.803-7.173-16.436-14.569l-26.421-74.23c-2.929-8.231-.83-17.543 5.349-23.722zm-20.936 23.428c.352 1.794.834 3.574 1.457 5.324l26.421 74.23c4.367 12.271 14.562 21.308 27.268 24.172 1.178.266 2.359.461 3.54.613v55.143c0 22.367-10.729 43-28.256 55.915.006-.311.023-.621.023-.933v-44.2c0-25.627-19.746-46.717-44.823-48.892-3.786-7.727-10.935-13.512-19.527-15.45v-106.757h23.153c3.6 0 7.195.285 10.744.835zm-53.348 214.465c0-4.142-3.358-7.5-7.5-7.5s-7.5 3.358-7.5 7.5c0 9.183-3.579 17.823-10.07 24.323-6.506 6.498-15.147 10.077-24.33 10.077-18.968 0-34.4-15.432-34.4-34.4v-44.2c0-16.383 11.618-30.099 27.046-33.354 1.439 14.229 13.284 25.431 27.786 25.853v5.149c0 11.837 9.63 21.467 21.467 21.467 11.836 0 21.466-9.63 21.466-21.467v-5.149c14.501-.422 26.347-11.623 27.786-25.852 15.431 3.257 27.049 16.972 27.049 33.353v44.2c0 9.183-3.578 17.824-10.069 24.323-6.507 6.498-15.147 10.077-24.33 10.077-18.969 0-34.401-15.432-34.401-34.4zm2.446 37.64c-3.222.848-6.557 1.307-9.951 1.307-3.382 0-6.707-.457-9.922-1.302 1.016-.865 2.01-1.762 2.964-2.716 2.681-2.684 5.015-5.621 6.981-8.758 2.706 4.316 6.063 8.183 9.928 11.469zm-30.565-131.894h1.162 38.907 1.166c7.6 0 13.782 6.183 13.782 13.782s-6.183 13.782-13.782 13.782h-6.651c-4.142 0-7.5 3.358-7.5 7.5v12.636c0 3.566-2.901 6.467-6.466 6.467-3.566 0-6.467-2.901-6.467-6.467v-12.636c0-4.142-3.358-7.5-7.5-7.5h-6.65c-7.6 0-13.783-6.183-13.783-13.782s6.183-13.782 13.782-13.782zm32.569-121.046v106.046h-23.907v-106.046zm-176.244 59.919c-8.867-8.874-8.867-23.314-.002-32.186l50.326-50.325c4.306-4.3 10.021-6.668 16.09-6.668 6.076 0 11.794 2.368 16.097 6.663 6.175 6.176 8.274 15.488 5.347 23.722l-21.39 60.1c-1.389 3.902.649 8.192 4.551 9.581 3.898 1.387 8.191-.648 9.581-4.551l21.391-60.103c.621-1.748 1.102-3.525 1.453-5.316 3.549-.551 7.145-.835 10.744-.835h23.149v106.758c-8.59 1.939-15.737 7.724-19.523 15.449-25.075 2.172-44.821 23.264-44.821 48.893v44.2c0 .312.018.619.024.93-17.527-12.914-28.258-33.547-28.258-55.912v-55.142c7.337-.919 14.469-3.981 20.375-9.229 3.097-2.751 3.377-7.491.626-10.588s-7.492-3.377-10.588-.626c-7.899 7.018-21.754 8.594-31.266-.918zm-36.536 201.731c0-11.474 7.198-21.95 17.912-26.069 1.939-.746 3.482-2.262 4.262-4.188.779-1.926.724-4.089-.152-5.973-1.042-2.243-1.571-4.638-1.571-7.119 0-9.313 7.577-16.89 16.89-16.89.886 0 1.783.069 2.665.204 2.049.313 4.139-.235 5.77-1.517 1.63-1.281 2.658-3.181 2.837-5.247.951-10.938 8.401-20.182 18.378-23.818 3.607 28.259 21.306 53.03 47.333 65.476 7.95 16.655 24.955 28.192 44.608 28.192 5.289 0 10.448-.84 15.338-2.432 8.078 4.576 17.181 6.979 26.556 6.979 9.393 0 18.505-2.408 26.582-6.993 4.828 1.579 9.976 2.445 15.324 2.445 13.185 0 25.59-5.136 34.937-14.47 4.056-4.061 7.317-8.703 9.71-13.735 26.018-12.458 43.704-37.237 47.298-65.501 10.07 3.575 17.398 12.715 18.373 23.86.181 2.067 1.21 3.967 2.843 5.247s3.72 1.827 5.773 1.511c.869-.134 1.759-.202 2.646-.202 9.313 0 16.891 7.577 16.891 16.89 0 2.495-.526 4.884-1.563 7.101-.882 1.885-.941 4.052-.163 5.982.777 1.93 2.322 3.451 4.265 4.198 10.72 4.122 17.922 14.598 17.922 26.069 0 5.322-1.554 10.509-4.387 14.96-.138-.002-.274-.01-.412-.01h-54.269c-2.3-11.921-12.807-20.955-25.389-20.955h-35.104c-12.583 0-23.089 9.034-25.389 20.955h-111.766c-2.3-11.921-12.807-20.955-25.389-20.955h-35.104c-12.583 0-23.089 9.034-25.389 20.955h-54.266c-.143 0-.284.009-.427.011-2.824-4.446-4.373-9.633-4.373-14.961zm328.064 19.858v9.174c0 2.595-2.008 4.824-4.385 4.867-1.208.023-2.357-.432-3.22-1.28s-1.339-1.981-1.339-3.191c0-4.142-3.357-7.5-7.5-7.5s-7.5 3.358-7.5 7.5c0 2.466-2.006 4.471-4.471 4.471-2.466 0-4.472-2.006-4.472-4.471 0-4.142-3.357-7.5-7.5-7.5s-7.5 3.358-7.5 7.5c0 1.21-.476 2.343-1.339 3.191-.862.847-2.012 1.303-3.22 1.28-2.376-.043-4.384-2.272-4.384-4.867v-9.174c0-5.99 4.873-10.862 10.862-10.862h35.104c5.991 0 10.864 4.872 10.864 10.862zm-197.643 0v9.174c0 2.595-2.008 4.824-4.384 4.867-1.204.025-2.356-.432-3.219-1.28-.864-.848-1.339-1.981-1.339-3.191 0-4.142-3.358-7.5-7.5-7.5s-7.5 3.358-7.5 7.5c0 2.466-2.006 4.471-4.471 4.471s-4.471-2.006-4.471-4.471c0-4.142-3.358-7.5-7.5-7.5s-7.5 3.358-7.5 7.5c0 1.21-.476 2.343-1.339 3.191-.863.847-2.03 1.303-3.22 1.28-2.376-.043-4.384-2.272-4.384-4.867v-9.174c0-5.99 4.873-10.862 10.862-10.862h35.104c5.988 0 10.861 4.872 10.861 10.862zm266.439 41.972h-46.57c-4.143 0-7.5 3.358-7.5 7.5s3.357 7.5 7.5 7.5h36.104l-23.214 68.393c-9.311 27.434-35.032 45.867-64.003 45.867h-196.697c-28.972 0-54.693-18.433-64.005-45.867l-23.213-68.393h305.028c4.143 0 7.5-3.358 7.5-7.5s-3.357-7.5-7.5-7.5h-315.49c-4.265 0-8.27-1.656-11.283-4.67-3.009-3.003-4.667-7.005-4.667-11.27 0-8.789 7.155-15.94 15.95-15.94h53.839c.474 10.342 8.83 18.76 19.064 18.947 4.527.075 8.834-1.366 12.342-4.115 3.303 2.579 7.457 4.118 11.962 4.118s8.66-1.539 11.963-4.118c3.506 2.749 7.809 4.191 12.341 4.115 10.234-.187 18.591-8.604 19.065-18.947h110.906c.474 10.342 8.831 18.76 19.065 18.947 4.473.078 8.833-1.365 12.341-4.115 3.303 2.579 7.457 4.118 11.963 4.118s8.659-1.539 11.962-4.118c3.507 2.749 7.817 4.191 12.341 4.115 10.235-.187 18.592-8.604 19.066-18.947h53.841c4.258 0 8.265 1.658 11.276 4.663 3.007 3.008 4.663 7.013 4.663 11.277 0 8.789-7.151 15.94-15.94 15.94z"/><path d="m450.697 162.817c-16.065 0-29.135 13.07-29.135 29.135s13.069 29.135 29.135 29.135 29.135-13.07 29.135-29.135-13.069-29.135-29.135-29.135zm0 43.27c-7.794 0-14.135-6.341-14.135-14.135s6.341-14.135 14.135-14.135 14.135 6.341 14.135 14.135-6.341 14.135-14.135 14.135z"/><path d="m471.396 66.286c-21.854 0-39.634 17.78-39.634 39.633s17.779 39.633 39.634 39.633c21.854 0 39.633-17.779 39.633-39.633s-17.779-39.633-39.633-39.633zm0 64.267c-13.583 0-24.634-11.05-24.634-24.633s11.051-24.633 24.634-24.633 24.633 11.051 24.633 24.633-11.05 24.633-24.633 24.633z"/><path d="m71.172 161.715c0-19.354-15.746-35.101-35.101-35.101s-35.1 15.747-35.1 35.101 15.746 35.101 35.101 35.101 35.1-15.746 35.1-35.101zm-55.201 0c0-11.083 9.017-20.101 20.101-20.101s20.101 9.017 20.101 20.101-9.017 20.101-20.101 20.101-20.101-9.017-20.101-20.101z"/></symbol><symbol id="lime" viewBox="0 0 512 512"><title>lime</title><g><ellipse cx="44.117" cy="346.092" rx="18.091" ry="18.091" transform="matrix(.177 -.984 .984 .177 -304.315 328.155)"/><path d="m104.861 385.124 8.285 23.297c.355.997 1.057 1.788 1.943 2.187l20.698 9.325c2.924 1.317 2.924 5.977 0 7.294l-20.698 9.325c-.886.399-1.589 1.19-1.943 2.187l-8.285 23.297c-1.171 3.291-5.31 3.291-6.48 0l-8.285-23.297c-.355-.997-1.057-1.788-1.943-2.187l-20.698-9.325c-2.924-1.318-2.924-5.977 0-7.294l20.698-9.325c.886-.399 1.589-1.19 1.943-2.187l8.285-23.297c1.17-3.291 5.31-3.291 6.48 0z"/><path d="m484.953 123.77 6.146 17.281c.263.74.784 1.326 1.441 1.622l15.354 6.917c2.169.977 2.169 4.433 0 5.411l-15.354 6.917c-.657.296-1.178.882-1.441 1.622l-6.146 17.281c-.868 2.441-3.939 2.441-4.807 0l-6.146-17.28c-.263-.74-.784-1.326-1.441-1.622l-15.354-6.917c-2.169-.977-2.169-4.433 0-5.411l15.354-6.917c.657-.296 1.178-.883 1.441-1.622l6.146-17.281c.868-2.442 3.938-2.442 4.807-.001z"/><ellipse cx="78.884" cy="286.728" rx="7.804" ry="7.804" transform="matrix(.925 -.381 .381 .925 -103.26 51.655)"/></g><g><path d="m510.012 277.994c-2.599-3.482-7.11-4.88-11.223-3.478l-28.641 9.766c-2.274-1.638-4.711-3.088-7.305-4.327-12.48-5.955-26.798-6.153-40.267-1.051-.322-11.856-3.45-23.236-9.184-32.999-2.761-4.7-6.02-8.833-9.673-12.365l-3.297-38.12c-.375-4.33-3.472-7.894-7.708-8.868-4.237-.976-8.579.878-10.808 4.609l-17.1 28.62c-15.024 1.525-29.094 10.047-39.061 23.479-9.073-12.227-21.547-20.385-35.043-22.902l-2.517-4.399c-4.218-7.372-12.312-11.004-20.626-9.259-8.312 1.747-14.259 8.335-15.151 16.782l-.697 6.599c-5.285 4.172-9.895 9.492-13.614 15.823-5.735 9.763-8.862 21.142-9.184 32.999-13.469-5.103-27.787-4.903-40.267 1.051-.173.083-.337.177-.508.261l-4.535-2.32c-7.308-3.739-15.775-2.406-21.577 3.398-5.803 5.802-7.137 14.272-3.398 21.577l3.955 7.729c-5.168 15.676-4.196 34.456 4.122 51.891 11.007 23.069 31.805 37.892 53.193 39.444-1.958 8.598-2.946 17.162-2.946 25.595 0 28.252 11.551 50.879 33.406 65.436 18.502 12.324 44.571 18.838 75.388 18.838s56.885-6.514 75.388-18.838c21.854-14.557 33.406-37.184 33.406-65.436 0-8.432-.988-16.997-2.946-25.595 21.385-1.553 42.186-16.377 53.193-39.444 7.184-15.056 8.89-31.117 5.895-45.317l19.473-27.433c2.512-3.541 2.456-8.263-.143-11.746zm-43.435 75.811c-9.493 19.896-29.345 31.564-46.181 27.136-3.614-.947-7.458.176-9.988 2.927s-3.332 6.675-2.083 10.197c4.007 11.306 6.039 22.565 6.039 33.466 0 55.773-55.524 64.101-88.621 64.101-33.098 0-88.622-8.328-88.622-64.101 0-10.902 2.032-22.161 6.04-33.465 1.249-3.523.447-7.447-2.083-10.198-1.936-2.105-4.641-3.258-7.424-3.258-.854 0-1.715.108-2.564.331-16.838 4.43-36.689-7.241-46.182-27.136-10.654-22.329-5.082-47.291 12.422-55.642 11.298-5.391 25.583-2.595 37.288 7.291 3.354 2.835 8.158 3.173 11.877.834 3.718-2.337 5.497-6.812 4.396-11.064-.477-1.846-.844-3.59-1.122-5.333-1.94-12.193.091-24.184 5.72-33.767 5.256-8.947 13.056-14.656 21.964-16.073 15.753-2.518 31.731 8.895 38.856 27.73 1.484 3.922 5.24 6.518 9.434 6.518s7.95-2.595 9.434-6.518c7.125-18.835 23.102-30.244 38.857-27.73 8.907 1.417 16.707 7.125 21.963 16.073 5.629 9.583 7.66 21.574 5.72 33.766-.278 1.743-.645 3.488-1.122 5.334-1.1 4.252.678 8.727 4.397 11.064 3.717 2.337 8.521 2.001 11.877-.834 11.703-9.887 25.991-12.681 37.288-7.291 17.502 8.351 23.075 33.312 12.42 55.642z"/><path d="m325.743 475.119c-19.907 0-36.734-4.2-48.663-12.146-14.042-9.352-21.464-23.898-21.464-42.064 0-18.47 7.355-37.848 20.179-53.163 13.795-16.475 31.533-25.548 49.949-25.548 18.415 0 36.154 9.074 49.948 25.548 12.824 15.317 20.179 34.693 20.179 53.163 0 18.166-7.422 32.712-21.464 42.064-11.93 7.946-28.758 12.146-48.664 12.146zm0-120.818c-14.771 0-29.214 7.534-40.668 21.214-10.868 12.98-17.356 29.949-17.356 45.394 0 36.636 36.354 42.107 58.024 42.107s58.024-5.471 58.024-42.107c0-15.445-6.488-32.414-17.355-45.394-11.456-13.68-25.898-21.214-40.669-21.214z"/><path d="m294.69 418.546c-.898 0-1.811-.121-2.718-.374-5.365-1.498-8.5-7.062-7.002-12.428 3.919-14.035 13.487-26.298 25.595-32.802 4.907-2.637 11.022-.795 13.659 4.112 2.636 4.907.795 11.023-4.112 13.659-7.367 3.957-13.241 11.604-15.712 20.456-1.246 4.459-5.298 7.377-9.71 7.377z"/><path d="m293.049 337.203c-6.625 0-13.101-2.556-18.583-7.404-6.274-5.547-10.51-13.505-11.926-22.407-2.995-18.819 7.65-36.21 23.729-38.77 8.011-1.274 16.06 1.239 22.665 7.08 6.274 5.547 10.509 13.505 11.926 22.407 2.995 18.818-7.65 36.21-23.728 38.77-1.363.216-2.727.324-4.083.324zm-2.759-56.795c-.708 0-1.415.055-2.119.168-9.488 1.51-15.625 12.686-13.679 24.913.977 6.137 3.814 11.551 7.991 15.243 3.845 3.4 8.369 4.891 12.746 4.193 9.488-1.51 15.624-12.686 13.678-24.913-.977-6.137-3.814-11.551-7.991-15.243-3.226-2.854-6.933-4.361-10.626-4.361z"/><path d="m359.423 335.202c-1.272 0-2.548-.1-3.825-.303-7.497-1.194-13.924-5.762-18.096-12.865-3.948-6.721-5.397-14.982-4.08-23.26 1.318-8.278 5.259-15.681 11.099-20.845 6.171-5.456 13.698-7.804 21.195-6.611 7.497 1.194 13.924 5.762 18.096 12.865 3.948 6.721 5.397 14.982 4.08 23.26s-5.259 15.68-11.099 20.844c-5.119 4.528-11.174 6.915-17.37 6.915zm2.529-52.078c-3.265 0-6.548 1.339-9.413 3.873-3.742 3.309-6.286 8.168-7.164 13.68-.877 5.512.033 10.921 2.563 15.227 2.306 3.927 5.702 6.428 9.562 7.042 3.859.616 7.864-.708 11.276-3.725 3.742-3.31 6.287-8.167 7.164-13.679.877-5.513-.033-10.921-2.563-15.228-2.306-3.927-5.702-6.428-9.562-7.042-.618-.099-1.24-.148-1.863-.148zm-22.553 16.601h.01z"/><path d="m232.309 368.179c-7.039 0-14.481-2.677-20.613-8.022-5.727-4.991-9.521-11.583-10.684-18.564-1.235-7.416.597-14.384 5.16-19.619 4.562-5.235 11.199-8.021 18.729-7.793 7.073.197 14.123 3.055 19.85 8.045 12.159 10.596 14.637 27.724 5.524 38.182-4.517 5.185-11.047 7.771-17.966 7.771zm-8.183-41.905c-3.646 0-6.768 1.288-8.829 3.652-2.143 2.46-2.976 5.896-2.346 9.678.703 4.218 3.081 8.277 6.697 11.428 7.127 6.211 16.773 6.85 21.502 1.425 4.728-5.426 2.777-14.895-4.351-21.106-3.616-3.151-7.962-4.952-12.236-5.072-.146-.003-.293-.005-.437-.005z"/><path d="m417.956 368.571c-5.954 0-11.633-2.055-15.894-6.257-9.539-9.408-8.415-26.071 2.505-37.146 5.139-5.211 11.706-8.469 18.49-9.173 7.227-.749 13.836 1.434 18.618 6.149s7.058 11.296 6.409 18.529c-.61 6.794-3.775 13.407-8.914 18.617-6.043 6.128-13.84 9.281-21.214 9.281zm7.814-40.614c-.479 0-.967.026-1.463.077-3.999.416-7.949 2.416-11.121 5.633-6.235 6.323-7.413 15.309-2.625 20.03 4.789 4.721 13.756 3.419 19.992-2.904 3.172-3.217 5.117-7.194 5.477-11.2.32-3.565-.693-6.701-2.852-8.829-1.86-1.834-4.452-2.807-7.408-2.807z"/><path d="m456.714 32.793c-9.016-25.438-37.047-38.799-62.486-29.783l-361.607 128.165c-12.323 4.367-22.207 13.273-27.833 25.075-5.625 11.803-6.318 25.089-1.95 37.412 7.107 20.052 26.026 32.598 46.18 32.598 5.413 0 10.92-.906 16.306-2.815l361.607-128.165c25.439-9.016 38.799-37.048 29.783-62.487zm-55.748-10.768c3.168-1.123 6.403-1.656 9.586-1.656 9.842 0 19.17 5.103 24.446 13.585l-43.869 15.67-7.592-21.421zm-50.432 78.93-7.544-21.285 40.785-14.568 7.579 21.385zm-52.932 18.761-7.498-21.156 41.488-14.818 7.534 21.257zm-52.51 18.611-7.452-21.027 41.066-14.668 7.488 21.128zm21.877-68.81 7.693 21.706-41.066 14.668-7.729-21.806zm52.932-18.761 7.647 21.577-41.488 14.818-7.683-21.678zm19.045 17.506-7.637-21.549 40.821-14.468 7.602 21.449zm-280.36 136.169c-14.957 5.302-31.435-2.553-36.735-17.508-2.567-7.245-2.161-15.055 1.146-21.994 3.307-6.938 9.118-12.173 16.362-14.74l175.1-62.06 19.225 54.242zm377.968-142.905c-3.307 6.938-9.118 12.173-16.363 14.74l-17.43 6.178-7.589-21.413 43.932-15.692c.744 5.485-.112 11.073-2.55 16.187z"/><path d="m106.681 163.528c-4.198 0-8.118-2.643-9.547-6.838-1.796-5.273 1.024-11.004 6.297-12.8 3.943-1.343 7.809-2.808 11.902-4.361 7.797-2.958 15.859-6.016 24.411-8.116 5.411-1.327 10.872 1.981 12.2 7.391s-1.98 10.871-7.39 12.2c-7.358 1.806-14.502 4.516-22.066 7.385-4.072 1.544-8.282 3.142-12.554 4.597-1.078.367-2.175.542-3.253.542z"/><path d="m61.385 178.928c-4.193 0-8.109-2.635-9.542-6.824-1.804-5.271 1.007-11.005 6.278-12.808l12.183-4.168c5.27-1.803 11.005 1.007 12.809 6.276 1.803 5.271-1.007 11.005-6.277 12.809l-12.184 4.168c-1.083.37-2.184.547-3.267.547z"/></g></symbol><symbol id="brush-teeth" viewBox="0 0 64 64"><title>brush-teeth</title><path d="m55 36h-1v2h1a1 1 0 0 1 1 1v1h2v-1a3 3 0 0 0 -3-3z"/><path d="m47 40c-1.121 0-3-.26-3-2h-2c0 1.845 1.31 4 5 4s5-2.155 5-4h-2c0 1.74-1.879 2-3 2z"/><path d="m62 32a4 4 0 0 0 -4-4h-.08a5.62 5.62 0 0 0 .08-1 7.008 7.008 0 0 0 -7-7 6.659 6.659 0 0 0 -5.3 2.67 6.188 6.188 0 0 0 -1.15-.44l1.9-3.3 2-3.46 1-1.74a2.99 2.99 0 0 0 -1.09-4.09l-6.07-3.5.5-.87a.963.963 0 0 0 .1-.76 1 1 0 0 0 -.46-.61l-3.47-2a1 1 0 0 0 -1.36.37l-13.29 23.02-10.53 2.83a.949.949 0 0 0 -.61.46l-11.5 19.92a1 1 0 0 0 .37 1.37l3.46 2a1.094 1.094 0 0 0 .5.13 1.153 1.153 0 0 0 .26-.03 1.026 1.026 0 0 0 .61-.47l10.29-17.83 10.53-2.82a1.028 1.028 0 0 0 .6-.46l1-1.74 4.76 2.75a3.833 3.833 0 0 0 -.05.6 3.965 3.965 0 0 0 .41 1.73 6.984 6.984 0 0 0 -2.41 5.27v.88a24.955 24.955 0 0 0 1.43 8.34l4.18 11.82a2.912 2.912 0 0 0 5.61-.39l2.85-7.43a1 1 0 0 1 1.86 0l2.85 7.43a2.915 2.915 0 0 0 5.61.4l4.18-11.83a24.955 24.955 0 0 0 1.43-8.34v-.88a6.983 6.983 0 0 0 -1.3-4.05 4.024 4.024 0 0 0 1.3-2.95zm-16.78-14.94-6.93-4 1-1.73 6.93 4zm-10.93 2.93 1-1.73 6.65 3.84a5.894 5.894 0 0 0 -2.34.96zm3.83 4.53a6.071 6.071 0 0 0 -.87 1.79l-4.95-2.86.99-1.72zm-1.83-7.99 1-1.73 6.93 4-1 1.73zm11.07-5.16a1 1 0 0 1 .36 1.36l-.5.87-6.93-4 1-1.73zm-20.59 17.66-10.53 2.82a1.01 1.01 0 0 0 -.61.46l-10 17.32-1.73-1 10.79-18.69 10.53-2.82a1 1 0 0 0 .61-.47l13-22.51 1.73 1zm3.52-2.11 1.01-1.73 5.32 3.07a3.887 3.887 0 0 0 -1.77 1.29zm29.71 12.96a22.785 22.785 0 0 1 -1.32 7.67l-4.18 11.84a.918.918 0 0 1 -.86.61.9.9 0 0 1 -.9-.77 1.6 1.6 0 0 0 -.05-.21l-2.89-7.52a3 3 0 0 0 -5.6 0l-2.89 7.52a1.6 1.6 0 0 0 -.05.21.909.909 0 0 1 -1.76.15l-4.18-11.83a22.785 22.785 0 0 1 -1.32-7.67v-.88a5 5 0 0 1 5-5h4c1.06 0 2.47 2.03 3.09 3.41a1 1 0 0 0 1.82 0c.62-1.38 2.03-3.41 3.09-3.41h4a5 5 0 0 1 5 5zm-.68-6.38a6.944 6.944 0 0 0 -4.32-1.5h-4c-1.74 0-3.14 1.61-4 2.94-.86-1.33-2.26-2.94-4-2.94h-4a6.976 6.976 0 0 0 -2.89.63 1.9 1.9 0 0 1 -.11-.63 2.006 2.006 0 0 1 2-2 1 1 0 0 0 1-1v-1a4 4 0 0 1 4-4 4.4 4.4 0 0 1 2.42.82 1 1 0 0 0 .79.16 1.055 1.055 0 0 0 .65-.46 4.831 4.831 0 0 1 4.14-2.52 5 5 0 0 1 5 5 5.2 5.2 0 0 1 -.29 1.67 1.014 1.014 0 0 0 .12.91 1.028 1.028 0 0 0 .82.42h1.35a2 2 0 0 1 1.32 3.5z"/><path d="m58 19a3 3 0 1 0 -3-3 3 3 0 0 0 3 3zm0-4a1 1 0 1 1 -1 1 1 1 0 0 1 1-1z"/><path d="m26 34a3 3 0 1 0 3 3 3 3 0 0 0 -3-3zm0 4a1 1 0 1 1 1-1 1 1 0 0 1 -1 1z"/><path d="m20 45a3 3 0 1 0 3 3 3 3 0 0 0 -3-3zm0 4a1 1 0 1 1 1-1 1 1 0 0 1 -1 1z"/><path d="m32 56a3 3 0 1 0 3 3 3 3 0 0 0 -3-3zm0 4a1 1 0 1 1 1-1 1 1 0 0 1 -1 1z"/><path d="m51 25h2v2h-2z"/><path d="m51 8h2v2h-2z"/><path d="m26 45h2v2h-2z"/><path d="m17 38h2v2h-2z"/><path d="m19 58h2v2h-2z"/></symbol><symbol id="pet-trimmer" viewBox="0 0 490.703 490.703"><title>pet-trimmer</title><path d="M242.383,253.895h-2.351c-12.465,0-22.605,10.141-22.605,22.605v2.351c0,12.465,10.141,22.605,22.605,22.605h2.351 c12.464,0,22.605-10.141,22.605-22.605v-2.351C264.988,264.036,254.847,253.895,242.383,253.895z M247.988,278.852 c0,3.091-2.514,5.605-5.605,5.605h-2.351c-3.091,0-5.605-2.515-5.605-5.605v-2.351c0-3.091,2.515-5.605,5.605-5.605h2.351 c3.091,0,5.605,2.515,5.605,5.605V278.852z"/><path d="M241.207,324.422c-4.694,0-8.5,3.806-8.5,8.5v24.685c0,4.694,3.806,8.5,8.5,8.5c4.694,0,8.5-3.806,8.5-8.5v-24.685 C249.707,328.228,245.901,324.422,241.207,324.422z"/><path d="M374.627,473.703h-96.218c-16.794,0-30.458-13.663-30.458-30.457v-28.381h21.562c24.402,0,44.254-19.853,44.254-44.255 V253.949h24.24c20.309,0,36.832-16.523,36.832-36.832V113.235c0-14.686-8.642-27.387-21.104-33.297V8.5c0-4.694-3.806-8.5-8.5-8.5 s-8.5,3.806-8.5,8.5v67.903h-24.611V8.5c0-4.694-3.806-8.5-8.5-8.5c-4.694,0-8.5,3.806-8.5,8.5v67.903h-24.61V8.5 c0-4.694-3.806-8.5-8.5-8.5c-4.694,0-8.5,3.806-8.5,8.5v67.903h-24.611V8.5c0-4.694-3.806-8.5-8.5-8.5c-4.694,0-8.5,3.806-8.5,8.5 v67.903h-24.611V8.5c0-4.694-3.806-8.5-8.5-8.5c-4.694,0-8.5,3.806-8.5,8.5v67.903h-24.61V8.5c0-4.694-3.806-8.5-8.5-8.5 c-4.694,0-8.5,3.806-8.5,8.5v71.438c-12.463,5.91-21.104,18.611-21.104,33.297v103.882c0,20.31,16.522,36.832,36.831,36.832h24.24 V370.61c0,24.402,19.853,44.255,44.254,44.255h18.049v28.381c0,26.168,21.29,47.457,47.458,47.457h96.218 c4.694,0,8.5-3.806,8.5-8.5C383.127,477.509,379.321,473.703,374.627,473.703z M144.408,93.403h193.599 c10.935,0,19.832,8.896,19.832,19.832v17.238H124.576v-17.238C124.576,102.3,133.473,93.403,144.408,93.403z M185.647,370.61 V245.449c0-4.694-3.806-8.5-8.5-8.5h-32.74c-10.935,0-19.831-8.896-19.831-19.832v-69.643h233.262v69.643 c0,10.936-8.897,19.832-19.832,19.832h-32.74c-4.694,0-8.5,3.806-8.5,8.5V370.61c0,15.028-12.226,27.255-27.254,27.255h-56.611 C197.873,397.865,185.647,385.639,185.647,370.61z"/></symbol><symbol id="pet-brush" viewBox="0 0 511.788 511.788"><title>pet-brush</title><path d="m447.174 463.732c-2.803 2.807-2.803 7.357 0 10.164s7.347 2.807 10.15 0 2.803-7.357 0-10.164-7.347-2.807-10.15 0zm33.844-35.597-107.649-107.795c-10.168-10.203-24.158-15.349-38.504-14.234l-37.011-37.062 14.771-14.791c12.34-12.357 17.671-29.109 16.01-45.27l53.824-32.441c3.547-2.138 4.689-6.748 2.552-10.295-2.138-3.548-6.746-4.689-10.296-2.552l-49.848 30.045c-1.716-4.248-3.976-8.324-6.775-12.124l39.732-30.993c3.267-2.547 3.849-7.26 1.302-10.526-2.55-3.267-7.263-3.849-10.527-1.301l-40.687 31.737-10.115-10.128 36.69-34.057c3.036-2.818 3.212-7.563.395-10.6-2.818-3.036-7.563-3.212-10.6-.395l-37.092 34.43-9.898-9.911 35.551-35.6c2.927-2.931 2.924-7.68-.007-10.607-2.93-2.926-7.679-2.924-10.606.007l-35.537 35.586-9.701-9.714 35.551-35.599c2.927-2.931 2.924-7.68-.007-10.607-2.93-2.926-7.679-2.924-10.606.007l-35.537 35.585-10.147-10.161 32.839-39.25c2.658-3.177 2.237-7.907-.939-10.565-3.177-2.657-7.905-2.237-10.564.94l-31.976 38.219-10.006-10.016 30.465-42.401c2.417-3.364 1.649-8.05-1.715-10.467-3.361-2.417-8.05-1.65-10.467 1.714l-29.426 40.954c-3.687-2.699-7.661-4.915-11.848-6.616l30.006-49.917c2.135-3.55.986-8.158-2.563-10.292-3.551-2.133-8.159-.986-10.292 2.564l-32.376 53.86c-1.905-.195-3.83-.298-5.771-.298-14.907 0-28.921 5.813-39.46 16.367-2.928 2.931-2.924 7.68.007 10.607 2.932 2.926 7.681 2.923 10.606-.007 7.706-7.716 17.95-11.966 28.847-11.966 8.784 0 17.144 2.766 24.092 7.879l-6.516 9.069c-2.417 3.364-1.649 8.05 1.715 10.467 3.333 2.394 8.032 1.674 10.467-1.714l5.359-7.458 13.987 14.006s.001.001.001.002l15.075 15.095-8.653 8.665c-2.927 2.931-2.924 7.68.007 10.607 1.464 1.462 9.142 1.459 10.606-.007l8.64-8.651 14.995 15.016c.002.002.003.004.005.005.001.002.003.003.005.004l14.791 14.811-7.956 7.385c-3.036 2.818-3.212 7.563-.395 10.6 2.823 3.042 7.569 3.206 10.6.395l8.358-7.758 15.16 15.181c.008.008.016.015.023.023l.032.032c4.581 4.587 7.835 10.004 9.779 15.77l-7.805 4.704c-3.547 2.138-4.689 6.748-2.552 10.295 1.408 2.336 3.889 3.629 6.431 3.629 2.205 0 4.126-1.155 5.951-2.335-.722 9.388-4.648 18.573-11.803 25.738l-14.757 14.776-167.602-167.832c-12.282-12.403-32.856-12.286-45.122.005-11.315 11.338-12.325 29.139-3.041 41.628l-47.696 32.699c-8.728 5.891-9.917 18.753-2.428 26.168l66.636 66.725s0 0 0 0l107.221 107.365c7.341 7.439 20.293 6.288 26.161-2.429l32.448-47.46 17.252 17.275c1.465 1.467 3.386 2.2 5.307 2.2 1.918 0 3.836-.731 5.3-2.193 2.931-2.927 2.934-7.675.007-10.606 5.923 4.131-190.394-190.65-196.553-196.815-6.595-6.602-6.594-17.351.003-23.962 6.492-6.506 17.4-6.558 23.895.002l208.991 209.278c-5.166 2.399-9.926 5.709-14.072 9.861-19.128 19.154-19.128 50.319 0 69.472l107.65 107.796c18.671 18.886 50.504 18.928 69.406 0 19.128-19.153 19.128-50.318 0-69.472zm-399.033-284.912 161.061 161.276-34.043 49.794c-.479.7-1.155.86-1.516.894-.44.042-1.082-.029-1.65-.598l-20.736-20.764 8.882-8.894c2.927-2.931 2.924-7.68-.007-10.606-2.93-2.927-7.679-2.924-10.606.007l-8.868 8.88-30-30.041 8.882-8.895c2.927-2.931 2.924-7.68-.007-10.607-2.932-2.926-7.679-2.924-10.606.007l-8.869 8.881-30-30.041 8.882-8.895c2.927-2.931 2.924-7.68-.007-10.607-2.933-2.926-7.68-2.924-10.606.007l-8.869 8.881-30-30.041 8.883-8.895c2.927-2.931 2.924-7.68-.007-10.606-2.93-2.927-7.679-2.924-10.606.007l-8.869 8.88-20.721-20.749c-.602-.603-.635-1.306-.601-1.671.033-.364.194-1.047.896-1.527zm388.42 343.785c-6.436 6.444-14.99 9.993-24.09 9.993s-17.654-3.549-24.09-9.993l-107.65-107.796c-13.291-13.309-13.291-34.964 0-48.273 13.086-13.103 35.063-13.266 48.181 0l107.649 107.795c13.291 13.31 13.291 34.965 0 48.274z"/></symbol><symbol id="ear-cleaning" viewBox="0 0 256 256"><title>ear-cleaning</title><style type="text/css"> .st0{fill:#F9CFCF;} .st1{fill:#3762CC;} .st2{fill:#F9A7A7;} .st3{fill:#E0EBFC;} .st4{fill:#4671C6;} .st5{fill:#6BDDDD;} .st6{fill:#FFEA92;} .st7{fill:#A4C9FF;} .st8{fill:#EAA97D;} .st9{fill:#B9BEFC;} </style><g> <g> <path class="st2" d="M190.404,49.685c2.702,9.039,5.73,30.709-11.987,61.841L123.05,66.282 c28.405-22.398,50.844-23.257,60.454-22.235C186.774,44.394,189.484,46.609,190.404,49.685z"/> </g> <g> <path class="st2" d="M15.277,49.685c-2.702,9.039-5.73,30.709,11.987,61.841l55.367-45.244 C54.226,43.884,31.787,43.024,22.177,44.046C18.907,44.394,16.196,46.609,15.277,49.685z"/> </g> <g> <path class="st1" d="M178.416,113.525c-0.458,0-0.905-0.157-1.266-0.451l-55.366-45.244c-0.469-0.384-0.74-0.96-0.734-1.566 c0.005-0.606,0.286-1.177,0.762-1.553c28.427-22.416,50.985-23.816,61.904-22.654c4.075,0.434,7.453,3.202,8.604,7.054 c3.077,10.29,5.588,32.209-12.165,63.403c-0.291,0.512-0.793,0.869-1.372,0.977C178.66,113.514,178.538,113.525,178.416,113.525z M126.262,66.324l51.571,42.142c16.341-29.902,12.932-50.591,10.654-58.208l0,0c-0.688-2.303-2.728-3.96-5.195-4.222 C175.183,45.173,153.657,45.494,126.262,66.324z"/> </g> <g> <path class="st1" d="M27.264,113.525c-0.122,0-0.245-0.011-0.366-0.034c-0.579-0.108-1.081-0.465-1.372-0.977 C7.775,81.323,10.285,59.402,13.361,49.112l0,0c1.151-3.852,4.529-6.621,8.604-7.054c10.92-1.161,33.478,0.238,61.904,22.654 c0.476,0.375,0.756,0.947,0.762,1.553c0.005,0.606-0.265,1.183-0.734,1.566L28.53,113.074 C28.17,113.368,27.722,113.525,27.264,113.525z M17.193,50.257c-2.277,7.618-5.685,28.308,10.655,58.208l51.571-42.142 c-27.397-20.83-48.921-21.149-57.031-20.289C19.921,46.297,17.881,47.955,17.193,50.257L17.193,50.257z"/> </g> <g> <path class="st0" d="M23.352,156.422v-25.597c0-36.234,29.373-65.607,65.607-65.607h27.764c36.234,0,65.607,29.373,65.607,65.607 v25.597c0,11.815-9.578,21.394-21.394,21.394H44.745C32.93,177.816,23.352,168.238,23.352,156.422z"/> </g> <g> <path class="st2" d="M68.154,156.839c12.771,0,23.124-10.082,23.124-22.52V65.353h-5.554 c-34.801,2.069-62.372,30.197-62.372,64.608v26.742c0,0.046,0.007,0.09,0.007,0.135H68.154z"/> </g> <g> <path class="st2" d="M119.957,65.353h-5.554v68.966c0,12.437,10.353,22.52,23.124,22.52h44.796c0-0.046,0.007-0.09,0.007-0.135 v-26.742C182.329,95.55,154.758,67.422,119.957,65.353z"/> </g> <g> <path class="st0" d="M174.821,94.975c7.031-16.227,7.506-28.49,6.573-36.117c-0.334-2.729-2.785-4.732-5.602-4.578 c-7.875,0.43-20.194,3.015-35.382,12.576L174.821,94.975z"/> </g> <g> <path class="st0" d="M30.86,94.975c-7.031-16.227-7.506-28.49-6.573-36.117c0.334-2.729,2.785-4.732,5.602-4.578 c7.875,0.43,20.194,3.015,35.382,12.576L30.86,94.975z"/> </g> <g> <g> <path class="st1" d="M63.989,146.124h-2.071c-3.834,0-6.942-3.108-6.942-6.942v-10.959c0-3.834,3.108-6.942,6.942-6.942h2.071 c3.834,0,6.942,3.108,6.942,6.942v10.959C70.931,143.016,67.823,146.124,63.989,146.124z"/> </g> <g> <path class="st1" d="M143.762,146.124h-2.071c-3.834,0-6.942-3.108-6.942-6.942v-10.959c0-3.834,3.108-6.942,6.942-6.942h2.071 c3.834,0,6.942,3.108,6.942,6.942v10.959C150.704,143.016,147.596,146.124,143.762,146.124z"/> </g> </g> <g> <path class="st1" d="M160.936,179.816H44.745c-12.899,0-23.394-10.494-23.394-23.394v-25.597 c0-37.279,30.328-67.607,67.607-67.607h27.764c37.279,0,67.607,30.328,67.607,67.607v25.597 C184.329,169.322,173.835,179.816,160.936,179.816z M88.958,67.218c-35.073,0-63.607,28.534-63.607,63.607v25.597 c0,10.694,8.7,19.394,19.394,19.394h116.19c10.693,0,19.394-8.7,19.394-19.394v-25.597c0-35.073-28.534-63.607-63.607-63.607 H88.958z"/> </g> <g> <path class="st0" d="M7.454,192.584L7.454,192.584c0-24.874,20.165-45.039,45.039-45.039h100.695 c24.874,0,45.039,20.165,45.039,45.039v0c0,24.874-20.165,45.039-45.039,45.039H52.493 C27.619,237.623,7.454,217.458,7.454,192.584z"/> </g> <g> <path class="st3" d="M123.378,237.623H82.303c-12.603,0-22.82-10.217-22.82-22.82v-21.919c0-12.603,10.217-22.82,22.82-22.82 h41.075c12.603,0,22.82,10.217,22.82,22.82v21.919C146.198,227.406,135.981,237.623,123.378,237.623z"/> </g> <g> <path class="st1" d="M118.944,200.359c-6.289,0-12.237-2.279-16.104-6.063c-3.867,3.784-9.815,6.063-16.104,6.063 c-11.349,0-20.582-7.211-20.582-16.075c0-1.104,0.896-2,2-2s2,0.896,2,2c0,6.658,7.438,12.075,16.582,12.075 c6.007,0,11.568-2.407,14.511-6.283c0.757-0.995,2.429-0.995,3.186,0c2.943,3.875,8.504,6.283,14.511,6.283 c9.144,0,16.582-5.417,16.582-12.075c0-1.104,0.896-2,2-2s2,0.896,2,2C139.526,193.148,130.293,200.359,118.944,200.359z"/> </g> <g> <path class="st4" d="M110.302,179.917H95.379c-5.457,0-9.881-4.424-9.881-9.881V166.8c0-3.638,2.949-6.587,6.587-6.587h21.511 c3.638,0,6.588,2.949,6.588,6.587v3.236C120.183,175.493,115.759,179.917,110.302,179.917z"/> </g> <g> <path class="st1" d="M153.188,239.623H52.493c-25.937,0-47.039-21.102-47.039-47.039s21.102-47.039,47.039-47.039h100.695 c25.938,0,47.039,21.102,47.039,47.039S179.125,239.623,153.188,239.623z M52.493,149.545c-23.731,0-43.039,19.307-43.039,43.039 s19.307,43.039,43.039,43.039h100.695c23.731,0,43.039-19.307,43.039-43.039s-19.308-43.039-43.039-43.039H52.493z"/> </g> <g> <rect x="198.956" y="30.468" transform="matrix(-1.836970e-16 1 -1 -1.836970e-16 268.251 -135.5588)" class="st7" width="5.899" height="71.756"/> </g> <g> <path class="st2" d="M241.251,120.075H213.43l-7.258,19.958v32.659c0,2.004,1.625,3.629,3.629,3.629h35.078 c2.004,0,3.629-1.625,3.629-3.629v-32.659L241.251,120.075z"/> </g> <g> <rect x="206.172" y="140.049" class="st5" width="42.336" height="21.773"/> </g> <g> <path class="st1" d="M244.88,178.322h-35.079c-3.104,0-5.629-2.525-5.629-5.629v-32.659c0-0.233,0.041-0.464,0.12-0.684 l7.258-19.958c0.288-0.79,1.039-1.316,1.88-1.316h27.821c0.841,0,1.592,0.526,1.88,1.316l7.258,19.958 c0.079,0.219,0.12,0.451,0.12,0.684v32.659C250.509,175.797,247.983,178.322,244.88,178.322z M208.172,140.386v32.307 c0,0.898,0.73,1.629,1.629,1.629h35.079c0.898,0,1.629-0.731,1.629-1.629v-32.307l-6.658-18.311H214.83L208.172,140.386z"/> </g> <g> <path class="st4" d="M214.48,152.577L214.48,152.577c-2.182,0-3.951-1.769-3.951-3.951v-2.258c0-2.182,1.769-3.951,3.951-3.951 l0,0c2.182,0,3.951,1.769,3.951,3.951v2.258C218.431,150.808,216.662,152.577,214.48,152.577z"/> </g> <g> <path class="st4" d="M239.697,152.577L239.697,152.577c2.182,0,3.951-1.769,3.951-3.951v-2.258c0-2.182-1.769-3.951-3.951-3.951h0 c-2.182,0-3.951,1.769-3.951,3.951v2.258C235.746,150.808,237.515,152.577,239.697,152.577z"/> </g> <g> <path class="st4" d="M222.041,145.304L222.041,145.304c-2.182,0-3.951-1.769-3.951-3.951v-2.258c0-2.182,1.769-3.951,3.951-3.951 l0,0c2.182,0,3.951,1.769,3.951,3.951v2.258C225.992,143.535,224.223,145.304,222.041,145.304z"/> </g> <g> <path class="st4" d="M231.922,145.304L231.922,145.304c2.182,0,3.951-1.769,3.951-3.951v-2.258c0-2.182-1.769-3.951-3.951-3.951 l0,0c-2.182,0-3.951,1.769-3.951,3.951v2.258C227.971,143.535,229.74,145.304,231.922,145.304z"/> </g> <g> <path class="st4" d="M234.851,153.086c-0.35-0.087-0.593-0.384-0.593-0.722l0,0c0-3.701-3.21-6.702-7.169-6.702l0,0 c-3.96,0-7.169,3-7.169,6.702l0,0c0,0.339-0.243,0.635-0.593,0.722c-3.022,0.755-5.249,3.33-5.249,6.394v0.164 c0,3.656,3.171,6.62,7.082,6.62h5.929l0,0h5.929c3.911,0,7.082-2.964,7.082-6.62v-0.164 C240.1,156.416,237.873,153.84,234.851,153.086z"/> </g> <g> <path class="st7" d="M240.416,120.075h-26.151c-1.129,0-2.045-0.915-2.045-2.045V99.512h30.24v18.519 C242.46,119.16,241.545,120.075,240.416,120.075z"/> </g> <g> <path class="st3" d="M234.493,83.183h-14.304c-0.683,0-1.241,0.742-1.292,1.696c-0.238,4.458-1.572,10.704-6.675,14.634h15.12 h15.12c-5.103-3.929-6.437-10.176-6.675-14.634C235.734,83.925,235.176,83.183,234.493,83.183z"/> </g> <g> <path class="st1" d="M240.732,122.075h-26.784c-2.09,0-3.728-1.941-3.728-4.419V99.512c0-0.621,0.288-1.206,0.779-1.584 c4.479-3.45,5.681-9.058,5.898-13.156c0.108-2.046,1.523-3.589,3.29-3.589h14.304c1.767,0,3.182,1.543,3.29,3.589 c0.22,4.099,1.421,9.708,5.898,13.156c0.491,0.378,0.779,0.964,0.779,1.584v18.144 C244.46,120.134,242.822,122.075,240.732,122.075z M214.29,118.075h26.101c0.035-0.095,0.069-0.236,0.069-0.419v-17.197 c-4.972-4.316-6.382-10.594-6.661-15.276h-12.917c-0.278,4.681-1.688,10.959-6.661,15.276v17.197 C214.221,117.839,214.255,117.98,214.29,118.075z"/> </g> <g> <path class="st3" d="M218.04,112.366L218.04,112.366c-0.994,0-1.8-0.806-1.8-1.8v-7.488c0-0.994,0.806-1.8,1.8-1.8l0,0 c0.994,0,1.8,0.806,1.8,1.8v7.488C219.84,111.56,219.034,112.366,218.04,112.366z"/> </g> <g> <path class="st3" d="M224.24,112.366L224.24,112.366c-0.994,0-1.8-0.806-1.8-1.8v-7.488c0-0.994,0.806-1.8,1.8-1.8l0,0 c0.994,0,1.8,0.806,1.8,1.8v7.488C226.04,111.56,225.234,112.366,224.24,112.366z"/> </g> <g> <path class="st3" d="M230.44,112.366L230.44,112.366c-0.994,0-1.8-0.806-1.8-1.8v-7.488c0-0.994,0.806-1.8,1.8-1.8h0 c0.994,0,1.8,0.806,1.8,1.8v7.488C232.24,111.56,231.434,112.366,230.44,112.366z"/> </g> <g> <path class="st3" d="M236.64,112.366L236.64,112.366c-0.994,0-1.8-0.806-1.8-1.8v-7.488c0-0.994,0.806-1.8,1.8-1.8l0,0 c0.994,0,1.8,0.806,1.8,1.8v7.488C238.44,111.56,237.634,112.366,236.64,112.366z"/> </g> <g> <path class="st3" d="M243.72,128.165h-33.264c-1.67,0-3.024-1.354-3.024-3.024v-6.048c0-1.67,1.354-3.024,3.024-3.024h33.264 c1.67,0,3.024,1.354,3.024,3.024v6.048C246.744,126.811,245.39,128.165,243.72,128.165z"/> </g> <g> <path class="st1" d="M243.721,130.165h-33.265c-2.77,0-5.023-2.254-5.023-5.024v-6.048c0-2.77,2.254-5.024,5.023-5.024h33.265 c2.77,0,5.023,2.254,5.023,5.024v6.048C248.744,127.911,246.49,130.165,243.721,130.165z M210.456,118.069 c-0.564,0-1.023,0.459-1.023,1.024v6.048c0,0.564,0.459,1.024,1.023,1.024h33.265c0.564,0,1.023-0.459,1.023-1.024v-6.048 c0-0.564-0.459-1.024-1.023-1.024H210.456z"/> </g> <g> <path class="st6" d="M127.666,27.598c-2.248,4.86-5.977,8.909-10.618,11.585c-0.833,0.48-0.833,1.645,0,2.125 c4.641,2.675,8.37,6.725,10.618,11.585c0.437,0.944,1.797,0.944,2.234,0c2.248-4.86,5.977-8.91,10.618-11.585 c0.833-0.48,0.833-1.645,0-2.125c-4.641-2.676-8.37-6.725-10.618-11.585C129.463,26.654,128.103,26.654,127.666,27.598z"/> </g> <g> <path class="st6" d="M150.641,18.873c-1.573,3.402-4.184,6.237-7.433,8.11c-0.583,0.336-0.583,1.151,0,1.487 c3.249,1.873,5.859,4.707,7.433,8.11c0.306,0.661,1.258,0.661,1.564,0c1.573-3.402,4.184-6.237,7.433-8.11 c0.583-0.336,0.583-1.151,0-1.487c-3.249-1.873-5.859-4.707-7.433-8.11C151.899,18.212,150.947,18.212,150.641,18.873z"/> </g> <g> <path class="st1" d="M237.783,71.295h-71.756c-1.104,0-2-0.896-2-2v-5.898c0-1.104,0.896-2,2-2h71.756c1.104,0,2,0.896,2,2v5.898 C239.783,70.4,238.888,71.295,237.783,71.295z M168.027,67.295h67.756v-1.898h-67.756V67.295z"/> </g> <g> <path class="st3" d="M160.995,58.52c-3.659,0.842-6.093,3.061-6.41,5.57h-0.039v0.555v3.111v0.555h0.039 c0.316,2.51,2.751,4.729,6.41,5.57c2.151,0.495,4.5,0.395,6.613-0.171l10.684-2.864c0.825-0.221,1.368-0.766,1.368-1.373v-1.162 v-4.222v-1.162c0-0.607-0.543-1.152-1.368-1.373l-10.685-2.864C165.495,58.125,163.146,58.026,160.995,58.52z"/> </g> <g> <path class="st1" d="M163.89,76.2c-1.146,0-2.274-0.122-3.343-0.368c-4.21-0.969-7.249-3.625-7.877-6.837 c-0.08-0.213-0.124-0.443-0.124-0.683v-4.222c0-0.25,0.046-0.489,0.13-0.71c0.64-3.2,3.673-5.844,7.871-6.81h-0.001 c2.388-0.549,5.078-0.483,7.579,0.188l10.685,2.864c1.705,0.457,2.851,1.785,2.851,3.305v6.545c0,1.52-1.146,2.848-2.851,3.305 l-10.684,2.864C166.744,76.014,165.305,76.2,163.89,76.2z M156.546,67.92c0.01,0.047,0.018,0.094,0.023,0.143 c0.214,1.694,2.172,3.25,4.874,3.871c1.762,0.405,3.768,0.35,5.647-0.154l10.569-2.833v-5.489l-10.57-2.834 c-1.879-0.503-3.884-0.559-5.646-0.153c-0.001,0-0.001,0-0.001,0c-2.702,0.622-4.66,2.177-4.874,3.871 c-0.006,0.048-0.014,0.096-0.023,0.144V67.92z M160.995,58.521h0.01H160.995z"/> </g> <g> <path class="st3" d="M242.097,73.883c3.659-0.842,6.094-3.061,6.41-5.57h0.039v-0.555v-3.111v-0.555h-0.039 c-0.316-2.51-2.751-4.729-6.41-5.57c-2.151-0.495-4.5-0.395-6.613,0.171L224.8,61.555c-0.825,0.221-1.368,0.766-1.368,1.373v1.162 v4.222v1.162c0,0.607,0.543,1.152,1.368,1.373l10.685,2.864C237.597,74.278,239.947,74.377,242.097,73.883z"/> </g> <g> <path class="st1" d="M239.202,76.2c-1.415,0-2.854-0.186-4.235-0.557l-10.685-2.864c-1.705-0.457-2.851-1.785-2.851-3.305v-6.545 c0-1.52,1.146-2.848,2.851-3.305l10.685-2.864c2.499-0.671,5.19-0.738,7.578-0.189c4.21,0.969,7.249,3.625,7.877,6.837 c0.08,0.213,0.124,0.443,0.124,0.683v4.222c0,0.25-0.046,0.489-0.13,0.71c-0.64,3.199-3.672,5.843-7.87,6.81l0,0 C241.478,76.078,240.348,76.2,239.202,76.2z M242.098,73.883h0.01H242.098z M225.432,68.946l10.57,2.833 c1.88,0.503,3.887,0.558,5.647,0.154c2.701-0.622,4.659-2.177,4.873-3.871c0.006-0.049,0.014-0.097,0.023-0.144v-3.436 c-0.01-0.047-0.018-0.094-0.023-0.143c-0.214-1.694-2.172-3.25-4.874-3.872c-1.762-0.405-3.766-0.35-5.646,0.154l-10.57,2.833 V68.946z"/> </g> </g></symbol></svg>