<svg id="Capa_1" enable-background="new 0 0 512 512" height="512" viewBox="0 0 512 512" width="512" xmlns="http://www.w3.org/2000/svg"><g><path d="m380.203 191.858h9.127v9.127c0 4.142 3.358 7.5 7.5 7.5s7.5-3.358 7.5-7.5v-9.127h9.127c4.142 0 7.5-3.358 7.5-7.5s-3.358-7.5-7.5-7.5h-9.127v-9.127c0-4.142-3.358-7.5-7.5-7.5s-7.5 3.358-7.5 7.5v9.127h-9.127c-4.142 0-7.5 3.358-7.5 7.5s3.358 7.5 7.5 7.5z"/><path d="m456.773 419.953c2.631-4.869 4.055-10.369 4.055-16.116 0-16.514-11.851-30.31-27.492-33.327-.213-18.527-15.355-33.533-33.938-33.533-6.245 0-12.329 1.738-17.585 4.92-6.298-7.68-15.769-12.331-26.034-12.394v-74.915c0-43.648-27.922-80.891-66.839-94.822v-16.097c0-21.857-17.783-39.64-39.64-39.64h-19.22v-53.29h50.479v20.223c0 4.142 3.358 7.5 7.5 7.5h36.501c4.142 0 7.5-3.358 7.5-7.5v-45.592c0-13.989-11.381-25.37-25.37-25.37h-144.055c-13.989 0-25.37 11.381-25.37 25.37s11.381 25.37 25.37 25.37h10.544v53.29h-17.179c-4.142 0-7.5 3.358-7.5 7.5s3.358 7.5 7.5 7.5h93.3c13.586 0 24.64 11.054 24.64 24.64v12.015c-6.106-1.161-12.402-1.775-18.84-1.775h-106.94c-6.377 0-12.68.599-18.841 1.767v-12.006c0-5.685 1.985-11.238 5.59-15.635 2.626-3.204 2.158-7.929-1.045-10.555-3.205-2.626-7.929-2.158-10.555 1.045-5.797 7.072-8.99 16.002-8.99 25.145v16.099c-8.05 2.871-15.721 6.76-22.831 11.616-2.822-9.79-11.856-16.973-22.542-16.973-12.937 0-23.462 10.525-23.462 23.462v.98h-.979c-12.937 0-23.462 10.525-23.462 23.462s10.525 23.462 23.462 23.462h.979v.979c0 4.346 1.192 8.418 3.261 11.912-.835 5.214-1.265 10.554-1.265 15.92v206.039c0 28.325 23.044 51.37 51.37 51.37l342.26.001c6.298 0 12.41-1.217 18.167-3.618 3.823-1.594 5.63-5.986 4.036-9.809-1.594-3.824-5.988-5.628-9.809-4.036-3.918 1.634-8.088 2.462-12.394 2.462l-138.545-.003c-17.791-.063-32.245-14.552-32.245-32.357 0-8.646 3.367-16.769 9.487-22.88 6.105-6.113 14.229-9.48 22.874-9.48h138.43c17.844 0 32.36 14.517 32.36 32.36 0 4.539-.918 8.919-2.73 13.018-1.674 3.789.04 8.217 3.828 9.892 3.79 1.674 8.218-.039 9.892-3.828 2.661-6.021 4.01-12.441 4.01-19.082-.001-20.626-13.26-38.204-31.698-44.686zm-304.508-394.583c0-5.718 4.652-10.37 10.37-10.37h144.055c5.718 0 10.37 4.652 10.37 10.37v38.092h-21.501v-20.223c0-4.142-3.358-7.5-7.5-7.5h-125.424c-5.718 0-10.37-4.652-10.37-10.369zm35.914 25.369h26.9v53.29h-26.9zm184.821 305.27c1 2.346 3.124 4.022 5.638 4.451 2.513.428 5.073-.45 6.794-2.331 3.577-3.91 8.667-6.152 13.966-6.152 10.443 0 18.94 8.492 18.94 18.93 0 1.586-.199 3.172-.59 4.715-.59 2.326-.032 4.793 1.501 6.638 1.534 1.846 3.868 2.845 6.251 2.691.46-.03.921-.054 1.396-.054 10.438 0 18.93 8.497 18.93 18.94 0 5.125-2.019 9.905-5.605 13.442h-84.445v-72.774c7.525.083 14.269 4.576 17.224 11.504zm-328.495-145.232c-4.666 0-8.462-3.796-8.462-8.462s3.796-8.462 8.462-8.462h8.479c4.142 0 7.5-3.358 7.5-7.5v-8.48c0-4.666 3.796-8.462 8.462-8.462s8.462 3.796 8.462 8.462v8.48c0 4.142 3.358 7.5 7.5 7.5h8.48c4.666 0 8.462 3.796 8.462 8.462s-3.796 8.462-8.462 8.462h-8.48c-4.142 0-7.5 3.358-7.5 7.5v8.479c0 4.666-3.796 8.462-8.462 8.462s-8.462-3.796-8.462-8.462v-8.479c0-4.142-3.358-7.5-7.5-7.5zm224.695 220.375c-8.951 8.938-13.881 20.831-13.881 33.487 0 12.504 4.879 23.883 12.823 32.357h-169.291c-20.055 0-36.37-16.315-36.37-36.37v-206.038c0-1.751.072-3.495.177-5.233 2.003.558 4.111.863 6.289.863 12.937 0 23.462-10.525 23.462-23.462v-.979h.98c12.937 0 23.462-10.525 23.462-23.462 0-9.199-5.324-17.174-13.05-21.017 13.273-8.054 28.548-12.389 44.36-12.389h106.939c47.244 0 85.68 38.436 85.68 85.68v162.691h-38.1c-12.656-.001-24.548 4.929-33.48 13.872z"/><path d="m132.656 248.996c-38.032 38.033-38.032 99.916 0 137.948 18.424 18.424 42.919 28.57 68.974 28.57s50.55-10.146 68.974-28.57c18.424-18.423 28.57-42.919 28.57-68.974s-10.146-50.55-28.57-68.974c-38.033-38.033-99.916-38.033-137.948 0zm127.341 127.341c-15.59 15.59-36.319 24.177-58.367 24.177s-42.777-8.586-58.368-24.177c-32.184-32.184-32.184-84.551 0-116.735 16.094-16.094 37.228-24.138 58.368-24.138 21.135 0 42.277 8.048 58.367 24.138 15.59 15.591 24.177 36.319 24.177 58.368s-8.587 42.777-24.177 58.367z"/><path d="m201.633 305.184c-19.537 0-35.432 15.895-35.432 35.432s15.895 35.432 35.432 35.432 35.431-15.895 35.431-35.432-15.895-35.432-35.431-35.432zm0 55.863c-11.266 0-20.432-9.166-20.432-20.432s9.166-20.432 20.432-20.432 20.431 9.166 20.431 20.432-9.166 20.432-20.431 20.432z"/><path d="m201.633 301.104c11.361 0 20.604-9.243 20.604-20.604s-9.243-20.604-20.604-20.604-20.604 9.243-20.604 20.604 9.242 20.604 20.604 20.604zm0-26.208c3.09 0 5.604 2.514 5.604 5.604s-2.514 5.604-5.604 5.604-5.604-2.514-5.604-5.604 2.514-5.604 5.604-5.604z"/><path d="m173.385 305.788c0-11.361-9.243-20.604-20.604-20.604s-20.604 9.243-20.604 20.604 9.243 20.604 20.604 20.604 20.604-9.244 20.604-20.604zm-20.604 5.603c-3.09 0-5.604-2.514-5.604-5.604s2.514-5.604 5.604-5.604 5.604 2.514 5.604 5.604-2.514 5.604-5.604 5.604z"/><path d="m229.88 305.788c0 11.361 9.243 20.604 20.604 20.604s20.604-9.243 20.604-20.604-9.243-20.604-20.604-20.604-20.604 9.243-20.604 20.604zm26.208 0c0 3.09-2.514 5.604-5.604 5.604s-5.604-2.514-5.604-5.604 2.514-5.604 5.604-5.604 5.604 2.514 5.604 5.604z"/><path d="m419.591 250.681h-.98c-12.937 0-23.462 10.525-23.462 23.462s10.525 23.462 23.462 23.462h.98v.98c0 12.937 10.525 23.461 23.462 23.461s23.462-10.525 23.462-23.461v-.98h.979c12.937 0 23.462-10.525 23.462-23.462s-10.525-23.462-23.462-23.462h-.979v-.979c0-12.937-10.525-23.462-23.462-23.462s-23.462 10.525-23.462 23.462zm7.5 15c4.142 0 7.5-3.358 7.5-7.5v-8.479c0-4.666 3.796-8.462 8.462-8.462s8.462 3.796 8.462 8.462v8.479c0 4.142 3.358 7.5 7.5 7.5h8.479c4.666 0 8.462 3.796 8.462 8.462s-3.796 8.462-8.462 8.462h-8.479c-4.142 0-7.5 3.358-7.5 7.5v8.48c0 4.666-3.796 8.461-8.462 8.461s-8.462-3.796-8.462-8.461v-8.48c0-4.142-3.358-7.5-7.5-7.5h-8.48c-4.666 0-8.462-3.796-8.462-8.462s3.796-8.462 8.462-8.462z"/></g></svg>